<svg width="34" height="35" viewBox="0 0 34 35" fill="none" xmlns="http://www.w3.org/2000/svg">
<path d="M12.8616 23.43L17 20.92L21.1383 23.43L20.0383 18.7217L23.6983 15.58L18.8883 15.1533L17 10.7367L15.1116 15.1533L10.3016 15.58L13.9616 18.7217L12.8616 23.43ZM17 34.025L12.1216 29.1667H5.33331V22.3783L0.474976 17.5L5.33331 12.6217V5.83333H12.1216L17 0.974998L21.8783 5.83333H28.6666V12.6217L33.525 17.5L28.6666 22.3783V29.1667H21.8783L17 34.025ZM17 31.6667L21.1666 27.5H27V21.6667L31.1666 17.5L27 13.3333V7.5H21.1666L17 3.33333L12.8333 7.5H6.99998V13.3333L2.83331 17.5L6.99998 21.6667V27.5H12.8333L17 31.6667Z" fill="#D4CFCF"/>
</svg>
