<svg width="24" height="24" viewBox="0 0 24 24" fill="none" xmlns="http://www.w3.org/2000/svg">
<path d="M19.0203 4.97501C17.6313 3.58661 15.8618 2.64127 13.9355 2.25854C12.0092 1.8758 10.0127 2.07287 8.19838 2.82481C6.38409 3.57675 4.83352 4.84979 3.74274 6.48296C2.65195 8.11613 2.06994 10.0361 2.07031 12C2.07031 14.6341 3.11635 17.1603 4.97844 19.0233C6.84053 20.8864 9.36625 21.9337 12.0003 21.935C13.3038 21.9356 14.5948 21.6808 15.8003 21.185C17.002 20.6778 18.0951 19.9445 19.0203 19.025C19.943 18.1025 20.6748 17.0073 21.1742 15.802C21.6735 14.5966 21.9305 13.3047 21.9305 12C21.9305 10.6953 21.6735 9.4034 21.1742 8.19804C20.6748 6.99268 19.943 5.89749 19.0203 4.97501ZM18.3203 18.315C16.8904 19.7511 15.0141 20.6575 13.0003 20.885V14.325H14.8803C15.1455 14.325 15.3999 14.2197 15.5874 14.0321C15.775 13.8446 15.8803 13.5902 15.8803 13.325C15.8803 13.0598 15.775 12.8054 15.5874 12.6179C15.3999 12.4304 15.1455 12.325 14.8803 12.325H13.0003V9.58501C13.0003 9.31979 13.1057 9.06544 13.2932 8.8779C13.4807 8.69037 13.7351 8.58501 14.0003 8.58501H15.2003C15.4655 8.58501 15.7199 8.47965 15.9074 8.29212C16.095 8.10458 16.2003 7.85023 16.2003 7.58501C16.2003 7.31979 16.095 7.06544 15.9074 6.8779C15.7199 6.69037 15.4655 6.58501 15.2003 6.58501H13.5003C12.8373 6.58501 12.2014 6.8484 11.7325 7.31724C11.2637 7.78608 11.0003 8.42197 11.0003 9.08501V12.325H9.13031C8.8651 12.325 8.61074 12.4304 8.42321 12.6179C8.23567 12.8054 8.13031 13.0598 8.13031 13.325C8.13031 13.5902 8.23567 13.8446 8.42321 14.0321C8.61074 14.2197 8.8651 14.325 9.13031 14.325H11.0003V20.885C9.1432 20.6731 7.39959 19.8832 6.01576 18.6267C4.63193 17.3702 3.67783 15.7107 3.28821 13.8826C2.8986 12.0545 3.09317 10.1502 3.84444 8.43867C4.59572 6.72714 5.86572 5.29489 7.47506 4.34423C9.08441 3.39357 10.9518 2.97255 12.8133 3.14063C14.6749 3.30871 16.4366 4.0574 17.8497 5.28095C19.2627 6.5045 20.2556 8.14107 20.6882 9.95949C21.1207 11.7779 20.9711 13.6863 20.2603 15.415C19.8076 16.4982 19.1487 17.4832 18.3203 18.315Z" fill="#333333"/>
</svg>
