<svg width="24" height="24" viewBox="0 0 24 24" fill="none" xmlns="http://www.w3.org/2000/svg">
<g clip-path="url(#clip0_364_2709)">
<path d="M14.6364 8.96399C14.1279 8.96399 13.7514 9.09224 13.4566 9.25424C13.4094 9.08624 13.2541 8.96324 13.0711 8.99999H10.8331C10.6119 8.96324 10.4326 9.14249 10.5009 9.37499V17.625C10.4326 17.835 10.6119 18.015 10.8331 18H13.0711C13.2924 18.015 13.4716 17.835 13.4716 17.6137L13.4709 12.6277C13.4701 12.6255 13.4619 12.387 13.6126 12.2227C13.7334 12.0922 13.9411 12.0255 14.2284 12.0255C14.7069 12.0255 14.9199 12.2212 14.9994 12.6592V17.6137C14.9206 17.835 15.0999 18.015 15.3211 18H17.6799C17.9011 18.015 18.0804 17.835 18.0009 17.6137V12.4927C18.0796 9.88874 16.2249 8.96399 14.6364 8.96399ZM17.2786 17.25H15.7216V12.6592C15.7216 11.7735 15.1494 11.2245 14.2291 11.2245C13.7086 11.2245 13.3036 11.3775 13.0246 11.679C12.6369 12.099 12.6669 12.6315 12.7501 12.75V17.25H11.2336V9.76499H12.6706V10.017C12.67 10.0921 12.6906 10.1658 12.7301 10.2297C12.7695 10.2935 12.8261 10.345 12.8935 10.3781C12.9609 10.4113 13.0362 10.4247 13.1109 10.417C13.1855 10.4092 13.2565 10.3805 13.3156 10.3342L13.4206 10.2532C13.7244 10.014 14.0386 9.76574 14.6371 9.76574C15.2566 9.76574 17.2794 9.96299 17.2794 12.4935L17.2786 17.25ZM8.25011 5.22449C7.40861 5.22449 6.72461 5.90849 6.72461 6.74999C6.72461 7.59149 7.40861 8.27549 8.25011 8.27549C9.09161 8.27549 9.77561 7.59149 9.77561 6.74999C9.77561 5.90849 9.09161 5.22449 8.25011 5.22449ZM8.25011 7.47449C7.85111 7.47449 7.52561 7.14899 7.52561 6.74999C7.52561 6.35099 7.85111 6.02549 8.25011 6.02549C8.64911 6.02549 8.97461 6.35099 8.97461 6.74999C8.97461 7.14899 8.64911 7.47449 8.25011 7.47449ZM9.32111 8.96324H7.09511C6.87386 8.96324 6.69461 9.14249 6.75011 9.37499V17.625C6.69461 17.835 6.87386 18.015 7.09511 18H9.32111C9.54236 18.015 9.72161 17.835 9.72161 17.6137V9.36374C9.72161 9.25752 9.67941 9.15565 9.60431 9.08054C9.5292 9.00543 9.42733 8.96324 9.32111 8.96324ZM9.00011 17.25H7.49561V9.76499H9.00011V17.25Z" fill="#333333"/>
<path d="M12.0001 -0.0255127C5.36861 -0.0255127 -0.0253906 5.36849 -0.0253906 12C-0.0253906 18.6315 5.36861 24.0255 12.0001 24.0255C18.6316 24.0255 24.0256 18.6315 24.0256 12C24.0256 5.36849 18.6316 -0.0255127 12.0001 -0.0255127ZM12.0001 23.2245C5.81111 23.2245 0.775609 18.189 0.775609 12C0.775609 5.81099 5.81111 0.775487 12.0001 0.775487C18.1891 0.775487 23.2246 5.81099 23.2246 12C23.2246 18.189 18.1891 23.2245 12.0001 23.2245Z" fill="#333333"/>
</g>
<defs>
<clipPath id="clip0_364_2709">
<rect width="24" height="24" fill="white"/>
</clipPath>
</defs>
</svg>
