<svg width="18" height="18" viewBox="0 0 18 18" fill="none" xmlns="http://www.w3.org/2000/svg">
<path d="M15 8.25C14.8011 8.25 14.6103 8.32902 14.4697 8.46967C14.329 8.61032 14.25 8.80109 14.25 9V13.5C14.25 13.6989 14.171 13.8897 14.0303 14.0303C13.8897 14.171 13.6989 14.25 13.5 14.25H4.5C4.30109 14.25 4.11032 14.171 3.96967 14.0303C3.82902 13.8897 3.75 13.6989 3.75 13.5V4.5C3.75 4.30109 3.82902 4.11032 3.96967 3.96967C4.11032 3.82902 4.30109 3.75 4.5 3.75H9C9.19891 3.75 9.38968 3.67098 9.53033 3.53033C9.67098 3.38968 9.75 3.19891 9.75 3C9.75 2.80109 9.67098 2.61032 9.53033 2.46967C9.38968 2.32902 9.19891 2.25 9 2.25H4.5C3.90326 2.25 3.33097 2.48705 2.90901 2.90901C2.48705 3.33097 2.25 3.90326 2.25 4.5V13.5C2.25 14.0967 2.48705 14.669 2.90901 15.091C3.33097 15.5129 3.90326 15.75 4.5 15.75H13.5C14.0967 15.75 14.669 15.5129 15.091 15.091C15.5129 14.669 15.75 14.0967 15.75 13.5V9C15.75 8.80109 15.671 8.61032 15.5303 8.46967C15.3897 8.32902 15.1989 8.25 15 8.25Z" fill="#333333"/>
<path d="M12 3.75H13.185L8.46745 8.46C8.39716 8.52972 8.34136 8.61267 8.30329 8.70407C8.26521 8.79546 8.24561 8.89349 8.24561 8.9925C8.24561 9.09151 8.26521 9.18954 8.30329 9.28093C8.34136 9.37233 8.39716 9.45528 8.46745 9.525C8.53718 9.5953 8.62013 9.65109 8.71152 9.68917C8.80292 9.72724 8.90095 9.74685 8.99995 9.74685C9.09896 9.74685 9.19699 9.72724 9.28839 9.68917C9.37978 9.65109 9.46273 9.5953 9.53245 9.525L14.25 4.815V6C14.25 6.19891 14.329 6.38968 14.4696 6.53033C14.6103 6.67098 14.801 6.75 15 6.75C15.1989 6.75 15.3896 6.67098 15.5303 6.53033C15.6709 6.38968 15.75 6.19891 15.75 6V3C15.75 2.80109 15.6709 2.61032 15.5303 2.46967C15.3896 2.32902 15.1989 2.25 15 2.25H12C11.801 2.25 11.6103 2.32902 11.4696 2.46967C11.329 2.61032 11.25 2.80109 11.25 3C11.25 3.19891 11.329 3.38968 11.4696 3.53033C11.6103 3.67098 11.801 3.75 12 3.75Z" fill="#333333"/>
</svg>
