<svg width="24" height="24" viewBox="0 0 24 24" fill="none" xmlns="http://www.w3.org/2000/svg">
<g clip-path="url(#clip0_364_2705)">
<path d="M17.6008 5.59999H19.2008M7.20078 0.799988H16.8008C18.4982 0.799988 20.126 1.47427 21.3263 2.6745C22.5265 3.87474 23.2008 5.5026 23.2008 7.19999V16.8C23.2008 18.4974 22.5265 20.1252 21.3263 21.3255C20.126 22.5257 18.4982 23.2 16.8008 23.2H7.20078C5.5034 23.2 3.87553 22.5257 2.6753 21.3255C1.47507 20.1252 0.800781 18.4974 0.800781 16.8V7.19999C0.800781 5.5026 1.47507 3.87474 2.6753 2.6745C3.87553 1.47427 5.5034 0.799988 7.20078 0.799988ZM12.0008 16.8C10.7277 16.8 9.50684 16.2943 8.60667 15.3941C7.70649 14.4939 7.20078 13.273 7.20078 12C7.20078 10.7269 7.70649 9.50605 8.60667 8.60588C9.50684 7.7057 10.7277 7.19999 12.0008 7.19999C13.2738 7.19999 14.4947 7.7057 15.3949 8.60588C16.2951 9.50605 16.8008 10.7269 16.8008 12C16.8008 13.273 16.2951 14.4939 15.3949 15.3941C14.4947 16.2943 13.2738 16.8 12.0008 16.8Z" stroke="#333333"/>
</g>
<defs>
<clipPath id="clip0_364_2705">
<rect width="24" height="24" fill="white"/>
</clipPath>
</defs>
</svg>
