<svg width="16" height="16" viewBox="0 0 16 16" fill="none" xmlns="http://www.w3.org/2000/svg">
<path d="M7.99916 1.28571C9.4768 1.28571 10.8939 1.87269 11.9388 2.91754C12.9836 3.96238 13.5706 5.3795 13.5706 6.85713C13.5706 9.21142 11.9163 11.7771 8.65059 14.5817C8.469 14.7377 8.23748 14.8234 7.99809 14.8232C7.7587 14.823 7.52733 14.7369 7.34602 14.5806L7.13002 14.3931C4.00888 11.6617 2.42773 9.15885 2.42773 6.85713C2.42773 5.3795 3.01472 3.96238 4.05957 2.91754C5.10441 1.87269 6.52153 1.28571 7.99916 1.28571ZM7.99916 2.14285C6.74886 2.14285 5.54976 2.63953 4.66566 3.52363C3.78156 4.40773 3.28488 5.60683 3.28488 6.85713C3.28488 8.85828 4.74088 11.164 7.69288 13.7468L7.90602 13.9314C7.93194 13.9537 7.96498 13.966 7.99916 13.966C8.03334 13.966 8.06639 13.9537 8.09231 13.9314C11.1872 11.2731 12.7134 8.90571 12.7134 6.85713C12.7134 6.23805 12.5915 5.62502 12.3546 5.05306C12.1177 4.48109 11.7704 3.96139 11.3327 3.52363C10.8949 3.08587 10.3752 2.73862 9.80324 2.5017C9.23128 2.26479 8.61825 2.14285 7.99916 2.14285ZM7.99916 4.71428C8.56748 4.71428 9.11253 4.94004 9.51439 5.34191C9.91626 5.74377 10.142 6.28881 10.142 6.85713C10.142 7.42546 9.91626 7.9705 9.51439 8.37236C9.11253 8.77423 8.56748 8.99999 7.99916 8.99999C7.43084 8.99999 6.8858 8.77423 6.48393 8.37236C6.08207 7.9705 5.85631 7.42546 5.85631 6.85713C5.85631 6.28881 6.08207 5.74377 6.48393 5.34191C6.8858 4.94004 7.43084 4.71428 7.99916 4.71428ZM7.99916 5.57142C7.65817 5.57142 7.33114 5.70688 7.09003 5.948C6.84891 6.18912 6.71345 6.51614 6.71345 6.85713C6.71345 7.19813 6.84891 7.52515 7.09003 7.76627C7.33114 8.00739 7.65817 8.14285 7.99916 8.14285C8.34016 8.14285 8.66718 8.00739 8.9083 7.76627C9.14942 7.52515 9.28488 7.19813 9.28488 6.85713C9.28488 6.51614 9.14942 6.18912 8.9083 5.948C8.66718 5.70688 8.34016 5.57142 7.99916 5.57142Z" fill="#333333"/>
</svg>
