<svg width="43" height="43" viewBox="0 0 43 43" fill="none" xmlns="http://www.w3.org/2000/svg">
<mask id="path-1-outside-1_241_1986" maskUnits="userSpaceOnUse" x="0" y="0" width="43" height="43" fill="black">
<rect fill="white" width="43" height="43"/>
<path d="M0 8.29268C0 3.71276 3.71276 0 8.29268 0H31.7073C36.2872 0 40 3.71276 40 8.29268V31.7073C40 36.2872 36.2872 40 31.7073 40H8.29268C3.71276 40 0 36.2872 0 31.7073V8.29268Z"/>
</mask>
<path d="M0 8.29268C0 3.71276 3.71276 0 8.29268 0H31.7073C36.2872 0 40 3.71276 40 8.29268V31.7073C40 36.2872 36.2872 40 31.7073 40H8.29268C3.71276 40 0 36.2872 0 31.7073V8.29268Z" fill="#FE5E55"/>
<path d="M0 0H40H0ZM42.4878 31.7073C42.4878 37.6612 37.6612 42.4878 31.7073 42.4878H10.7805C4.82659 42.4878 0 37.6612 0 31.7073C0 34.9133 3.71276 37.5122 8.29268 37.5122H31.7073C34.9133 37.5122 37.5122 34.9133 37.5122 31.7073H42.4878ZM0 40V0V40ZM31.7073 0C37.6612 0 42.4878 4.82659 42.4878 10.7805V31.7073C42.4878 37.6612 37.6612 42.4878 31.7073 42.4878V37.5122C34.9133 37.5122 37.5122 34.9133 37.5122 31.7073V8.29268C37.5122 3.71276 34.9133 0 31.7073 0Z" fill="#F5FE64" mask="url(#path-1-outside-1_241_1986)"/>
<path d="M19.8717 29.2818C18.9063 29.2818 18.0382 29.1425 17.2672 28.8639C16.5028 28.5789 15.8517 28.1545 15.3139 27.5909C14.7762 27.0208 14.3648 26.3081 14.0797 25.4529C13.7947 24.5978 13.6521 23.5968 13.6521 22.4501V15.2588H18.0058V22.4695C18.0058 23.1109 18.0382 23.681 18.103 24.1799C18.1678 24.6787 18.2779 25.1031 18.4334 25.4529C18.5889 25.7963 18.7962 26.0587 19.0554 26.2401C19.3145 26.4215 19.6384 26.5122 20.0271 26.5122C20.4547 26.5122 20.7981 26.4215 21.0573 26.2401C21.3229 26.0587 21.527 25.7963 21.6695 25.4529C21.8185 25.1031 21.9189 24.6787 21.9707 24.1799C22.0226 23.681 22.0485 23.1109 22.0485 22.4695V15.2588H25.683V22.4501C25.683 23.6033 25.5696 24.6075 25.3429 25.4627C25.1161 26.3178 24.763 27.0305 24.2836 27.6006C23.8107 28.1643 23.2082 28.5854 22.4761 28.8639C21.7505 29.1425 20.8823 29.2818 19.8717 29.2818Z" fill="white"/>
</svg>
