<svg width="8" height="8" viewBox="0 0 8 8" fill="none" xmlns="http://www.w3.org/2000/svg">
<path d="M4.00044 1.75H5.18544L0.467942 6.46C0.397646 6.52972 0.341851 6.61267 0.303774 6.70407C0.265698 6.79546 0.246094 6.89349 0.246094 6.9925C0.246094 7.09151 0.265698 7.18954 0.303774 7.28093C0.341851 7.37233 0.397646 7.45528 0.467942 7.525C0.537665 7.5953 0.620615 7.65109 0.71201 7.68917C0.803404 7.72724 0.901434 7.74685 1.00044 7.74685C1.09945 7.74685 1.19748 7.72724 1.28888 7.68917C1.38027 7.65109 1.46322 7.5953 1.53294 7.525L6.25044 2.815V4C6.25044 4.19891 6.32946 4.38968 6.47011 4.53033C6.61076 4.67098 6.80153 4.75 7.00044 4.75C7.19935 4.75 7.39012 4.67098 7.53077 4.53033C7.67143 4.38968 7.75044 4.19891 7.75044 4V1C7.75044 0.801088 7.67143 0.610322 7.53077 0.46967C7.39012 0.329018 7.19935 0.25 7.00044 0.25H4.00044C3.80153 0.25 3.61076 0.329018 3.47011 0.46967C3.32946 0.610322 3.25044 0.801088 3.25044 1C3.25044 1.19891 3.32946 1.38968 3.47011 1.53033C3.61076 1.67098 3.80153 1.75 4.00044 1.75Z" fill="#333333"/>
</svg>
