<svg width="26" height="26" viewBox="0 0 26 26" fill="none" xmlns="http://www.w3.org/2000/svg">
<path d="M13 14.003L17.5985 18.6015C17.7307 18.7337 17.8932 18.8046 18.0858 18.814C18.2785 18.8234 18.4504 18.7526 18.6015 18.6015C18.7526 18.4504 18.8282 18.2832 18.8282 18.1C18.8282 17.9168 18.7526 17.7496 18.6015 17.5985L14.003 13L18.6015 8.4015C18.7337 8.26928 18.8046 8.10683 18.814 7.91417C18.8234 7.7215 18.7526 7.54961 18.6015 7.3985C18.4504 7.24739 18.2832 7.17183 18.1 7.17183C17.9168 7.17183 17.7496 7.24739 17.5985 7.3985L13 11.997L8.4015 7.3985C8.26928 7.26628 8.10683 7.19544 7.91417 7.186C7.7215 7.17656 7.54961 7.24739 7.3985 7.3985C7.24739 7.54961 7.17183 7.71678 7.17183 7.9C7.17183 8.08322 7.24739 8.25039 7.3985 8.4015L11.997 13L7.3985 17.5985C7.26628 17.7307 7.19544 17.8932 7.186 18.0858C7.17656 18.2785 7.24739 18.4504 7.3985 18.6015C7.54961 18.7526 7.71678 18.8282 7.9 18.8282C8.08322 18.8282 8.25039 18.7526 8.4015 18.6015L13 14.003ZM13.0042 25.75C11.2419 25.75 9.58442 25.4157 8.03175 24.747C6.48003 24.0774 5.12994 23.1688 3.9815 22.0213C2.83306 20.8748 1.92403 19.5261 1.25442 17.9753C0.584806 16.4246 0.25 14.7675 0.25 13.0042C0.25 11.2419 0.584333 9.58442 1.253 8.03175C1.92261 6.48003 2.83117 5.12994 3.97867 3.9815C5.12522 2.83306 6.47389 1.92403 8.02467 1.25442C9.57544 0.584806 11.2325 0.25 12.9957 0.25C14.7581 0.25 16.4156 0.584333 17.9683 1.253C19.52 1.92261 20.8701 2.83117 22.0185 3.97867C23.1669 5.12522 24.076 6.47389 24.7456 8.02467C25.4152 9.57544 25.75 11.2325 25.75 12.9957C25.75 14.7581 25.4157 16.4156 24.747 17.9683C24.0774 19.52 23.1688 20.8701 22.0213 22.0185C20.8748 23.1669 19.5261 24.076 17.9753 24.7456C16.4246 25.4152 14.7675 25.75 13.0042 25.75Z" fill="#333333"/>
</svg>
