<svg width="14" height="18" viewBox="0 0 14 18" fill="none" xmlns="http://www.w3.org/2000/svg">
<path fill-rule="evenodd" clip-rule="evenodd" d="M12.0625 6.75001C12.0649 7.83475 11.7164 8.89117 11.0691 9.76163L7 15.1875L2.93088 9.76163C2.45444 9.11795 2.13751 8.37043 2.00611 7.58046C1.87471 6.7905 1.9326 5.98063 2.175 5.21738C2.41741 4.45413 2.83743 3.75928 3.40056 3.18989C3.96369 2.62051 4.65386 2.19284 5.41439 1.94202C6.17491 1.6912 6.98409 1.62438 7.77546 1.74704C8.56683 1.86971 9.31781 2.17837 9.96671 2.64766C10.6156 3.11696 11.1439 3.7335 11.5083 4.44664C11.8726 5.15978 12.0625 5.94919 12.0625 6.75001ZM13.75 6.75001C13.75 8.25751 13.2561 9.64801 12.4225 10.7708L8.05413 16.5938L7 18L5.94475 16.5938L1.5775 10.7708C0.941522 9.91286 0.518172 8.91631 0.342234 7.86298C0.166297 6.80965 0.242793 5.72961 0.565438 4.71159C0.888083 3.69358 1.44767 2.76664 2.19822 2.00695C2.94876 1.24726 3.86885 0.676488 4.88289 0.341538C5.89692 0.00658827 6.97596 -0.0829821 8.03134 0.0801864C9.08672 0.243355 10.0883 0.654606 10.9539 1.28015C11.8194 1.90569 12.5242 2.72767 13.0102 3.67856C13.4963 4.62944 13.7499 5.68209 13.75 6.75001ZM7 9.00001C7.59674 9.00001 8.16903 8.76295 8.59099 8.341C9.01295 7.91904 9.25 7.34674 9.25 6.75001C9.25 6.15327 9.01295 5.58097 8.59099 5.15902C8.16903 4.73706 7.59674 4.50001 7 4.50001C6.40326 4.50001 5.83097 4.73706 5.40901 5.15902C4.98705 5.58097 4.75 6.15327 4.75 6.75001C4.75 7.34674 4.98705 7.91904 5.40901 8.341C5.83097 8.76295 6.40326 9.00001 7 9.00001Z" fill="white"/>
</svg>
