<svg width="18" height="18" viewBox="0 0 18 18" fill="none" xmlns="http://www.w3.org/2000/svg">
<path d="M16.875 13.5V12.375H15.6932C15.6206 12.0229 15.4808 11.6881 15.2814 11.3889L16.1196 10.5508L15.3242 9.75544L14.4861 10.5936C14.1869 10.3942 13.8521 10.2544 13.5 10.1818V9H12.375V10.1818C12.0229 10.2544 11.6881 10.3942 11.3889 10.5936L10.5508 9.75544L9.75544 10.5508L10.5936 11.3889C10.3942 11.6881 10.2544 12.0229 10.1818 12.375H9V13.5H10.1818C10.2544 13.8521 10.3942 14.1869 10.5936 14.4861L9.75544 15.3242L10.5508 16.1196L11.3889 15.2814C11.6881 15.4808 12.0229 15.6206 12.375 15.6932V16.875H13.5V15.6932C13.8521 15.6206 14.1869 15.4808 14.4861 15.2814L15.3242 16.1196L16.1196 15.3242L15.2814 14.4861C15.4808 14.1869 15.6206 13.8521 15.6932 13.5H16.875ZM12.9375 14.625C12.6037 14.625 12.2775 14.526 12 14.3406C11.7225 14.1552 11.5062 13.8916 11.3785 13.5833C11.2507 13.2749 11.2173 12.9356 11.2824 12.6083C11.3475 12.2809 11.5083 11.9803 11.7443 11.7443C11.9803 11.5083 12.2809 11.3475 12.6083 11.2824C12.9356 11.2173 13.2749 11.2507 13.5833 11.3785C13.8916 11.5062 14.1552 11.7225 14.3406 12C14.526 12.2775 14.625 12.6037 14.625 12.9375C14.6246 13.3849 14.4466 13.8139 14.1302 14.1302C13.8139 14.4466 13.3849 14.6246 12.9375 14.625Z" fill="white"/>
<path d="M14.0625 2.8125H12.375V2.25C12.3741 1.95191 12.2553 1.66627 12.0445 1.45549C11.8337 1.2447 11.5481 1.12589 11.25 1.125H6.75C6.45191 1.12589 6.16627 1.2447 5.95549 1.45549C5.7447 1.66627 5.62589 1.95191 5.625 2.25V2.8125H3.9375C3.63941 2.81339 3.35377 2.9322 3.14299 3.14299C2.9322 3.35377 2.81339 3.63941 2.8125 3.9375V15.75C2.81339 16.0481 2.9322 16.3337 3.14299 16.5445C3.35377 16.7553 3.63941 16.8741 3.9375 16.875H7.875V15.75H3.9375V3.9375H5.625V5.625H12.375V3.9375H14.0625V7.3125H15.1875V3.9375C15.1866 3.63941 15.0678 3.35377 14.857 3.14299C14.6462 2.9322 14.3606 2.81339 14.0625 2.8125ZM11.25 4.5H6.75V2.25H11.25V4.5Z" fill="white"/>
</svg>
